<svg width="136" height="136" viewBox="0 0 136 136" fill="none" xmlns="http://www.w3.org/2000/svg">
<circle cx="68" cy="68" r="67" fill="white" stroke="#189C5C" stroke-width="2"/>
<path d="M93.0068 63.754L66.7723 90.0416C65.7373 91.0787 64.3613 91.6522 62.9001 91.6522H62.894C61.4268 91.6522 60.0508 91.0787 59.0158 90.0355L44.4709 75.4184C43.4358 74.3813 42.8696 73.0025 42.8696 71.5384C42.8696 70.0742 43.4419 68.6955 44.4769 67.6584C45.512 66.6213 46.8879 66.0478 48.3491 66.0478C49.8103 66.0478 51.1862 66.6213 52.2213 67.6584L62.9184 78.3711L85.2564 55.9879C86.2914 54.9507 87.6673 54.3773 89.1285 54.3773C90.5897 54.3773 91.9657 54.9507 93.0007 55.9879C95.1438 58.1292 95.1438 61.6126 93.0068 63.754ZM51.235 58.3061C53.445 59.1236 55.1802 60.8623 55.9899 63.0707C56.1665 63.5526 56.6231 63.8699 57.1345 63.8699C57.6459 63.8699 58.1026 63.5526 58.2791 63.0707C59.0949 60.8562 60.8301 59.1175 63.0341 58.3061C63.5151 58.1292 63.8316 57.6716 63.8316 57.1592C63.8316 56.6467 63.5151 56.1892 63.0341 56.0123C60.824 55.1948 59.0889 53.4561 58.2791 51.2477C58.1026 50.7657 57.6459 50.4485 57.1345 50.4485C56.6231 50.4485 56.1665 50.7657 55.9899 51.2477C55.1741 53.4622 53.4389 55.2009 51.235 56.0123C50.754 56.1892 50.4374 56.6467 50.4374 57.1592C50.4374 57.6716 50.7601 58.1292 51.235 58.3061ZM66.4557 52.2055C68.6658 53.0229 70.4009 54.7616 71.2107 56.9701C71.3872 57.452 71.8438 57.7692 72.3553 57.7692C72.8667 57.7692 73.3233 57.452 73.4999 56.9701C74.3157 54.7555 76.0509 53.0168 78.2548 52.2055C78.7358 52.0285 79.0524 51.571 79.0524 51.0585C79.0524 50.5461 78.7358 50.0885 78.2548 49.9116C76.0448 49.0941 74.3096 47.3555 73.4999 45.147C73.3233 44.6651 72.8667 44.3478 72.3553 44.3478C71.8438 44.3478 71.3872 44.6651 71.2107 45.147C70.3948 47.3616 68.6597 49.1002 66.4557 49.9116C65.9747 50.0885 65.6581 50.5461 65.6581 51.0585C65.6581 51.571 65.9808 52.0285 66.4557 52.2055Z" fill="#189C5C"/>
</svg>
