<?xml version="1.0" standalone="no"?>
<!DOCTYPE svg PUBLIC "-//W3C//DTD SVG 1.1//EN" "http://www.w3.org/Graphics/SVG/1.1/DTD/svg11.dtd" >
<svg xmlns="http://www.w3.org/2000/svg">
<metadata>Generated by IcoMoon</metadata>
<defs>
<font id="icomoon" horiz-adv-x="1024">
<font-face units-per-em="1024" ascent="960" descent="-64" />
<missing-glyph horiz-adv-x="1024" />
<glyph unicode="&#x20;" horiz-adv-x="512" d="" />
<glyph unicode="&#xe900;" glyph-name="thumbs-up" d="M444.187 922.906l-180.039-405.088h-124.512c-30.861 0-60.459-12.26-82.282-34.081-21.822-21.825-34.082-51.423-34.082-82.283v-325.818c0-30.86 12.26-60.458 34.082-82.283 21.822-21.821 51.42-34.081 82.282-34.081h664.548c28.011-0.284 55.189 9.551 76.535 27.695 21.378 18.171 35.477 43.473 39.685 71.215 0.005 0.009 0-0.005 0 0l64.233 418.909c2.532 16.677 1.41 33.704-3.295 49.904-4.701 16.2-12.87 31.183-23.938 43.912s-24.776 22.899-40.164 29.807c-15.346 6.888-32.005 10.366-48.826 10.196h-240.049v162.909c0 43.206-17.161 84.643-47.714 115.194s-71.987 47.715-115.195 47.715c-9.197 0-17.532-5.416-21.267-13.821zM302.545 489.607l177.617 399.642c25.437-3.24 49.245-14.823 67.575-33.149 21.821-21.822 34.081-51.42 34.081-82.282v-186.182c0-12.853 10.422-23.273 23.273-23.273l263.713 0.001c10.119 0.115 20.145-1.973 29.375-6.117 9.235-4.144 17.459-10.247 24.101-17.884 6.637-7.638 11.539-16.627 14.364-26.348 2.821-9.716 3.496-19.928 1.978-29.935 0 0.005 0 0 0 0l-64.228-418.881c-2.527-16.649-10.989-31.86-23.817-42.766-12.833-10.906-29.17-16.808-46.006-16.617h-502.025v483.789zM256 5.818h-116.364c-18.517 0-36.276 7.354-49.369 20.447s-20.449 30.855-20.449 49.371v325.818c0 18.516 7.356 36.278 20.449 49.371s30.852 20.447 49.369 20.447h116.364v-465.455z" />
<glyph unicode="&#xe901;" glyph-name="message" d="M213.333 810.667c-16.974 0-33.253-6.743-45.255-18.745s-18.745-28.281-18.745-45.255v-631.164l134.249 134.251c4 3.998 9.427 6.246 15.085 6.246h512c16.973 0 33.254 6.741 45.257 18.743s18.743 28.284 18.743 45.257v426.667c0 16.974-6.741 33.253-18.743 45.255s-28.284 18.745-45.257 18.745h-597.333zM137.908 822.092c20.004 20.004 47.135 31.242 75.425 31.242h597.333c28.288 0 55.42-11.238 75.426-31.242 20.002-20.004 31.241-47.135 31.241-75.425v-426.667c0-28.288-11.238-55.42-31.241-75.426-20.006-20.002-47.138-31.241-75.426-31.241h-503.163l-164.419-164.42c-6.101-6.101-15.277-7.923-23.249-4.621-7.972 3.298-13.169 11.081-13.169 19.708v682.667c0 28.29 11.238 55.421 31.242 75.425z" />
<glyph unicode="&#xe902;" glyph-name="mail" d="M170.667 768c-35.151 0-64-28.849-64-64v-512c0-35.153 28.849-64 64-64h682.667c35.153 0 64 28.847 64 64v512c0 35.151-28.847 64-64 64h-682.667zM64 704c0 58.715 47.951 106.667 106.667 106.667h682.667c58.714 0 106.667-47.951 106.667-106.667v-512c0-58.714-47.953-106.667-106.667-106.667h-682.667c-58.715 0-106.667 47.953-106.667 106.667v512zM67.858 716.232c6.756 9.652 20.058 12 29.711 5.243l414.431-290.102 414.434 290.102c9.651 6.757 22.955 4.409 29.713-5.243 6.754-9.652 4.407-22.954-5.244-29.711l-426.667-298.668c-7.347-5.141-17.122-5.141-24.469 0l-426.666 298.668c-9.652 6.757-12 20.058-5.243 29.711z" />
<glyph unicode="&#xe903;" glyph-name="layout" d="M213.333 810.667c-35.346 0-64-28.654-64-64v-597.333c0-35.345 28.654-64 64-64h597.333c35.345 0 64 28.655 64 64v597.333c0 35.346-28.655 64-64 64h-597.333zM106.667 746.667c0 58.91 47.756 106.667 106.667 106.667h597.333c58.91 0 106.667-47.756 106.667-106.667v-597.333c0-58.91-47.757-106.667-106.667-106.667h-597.333c-58.91 0-106.667 47.757-106.667 106.667v597.333zM106.667 576c0 11.782 9.551 21.333 21.333 21.333h768c11.78 0 21.333-9.551 21.333-21.333s-9.553-21.333-21.333-21.333h-768c-11.782 0-21.333 9.551-21.333 21.333zM384 597.333c11.782 0 21.333-9.551 21.333-21.333v-512c0-11.78-9.551-21.333-21.333-21.333s-21.333 9.553-21.333 21.333v512c0 11.782 9.551 21.333 21.333 21.333z" />
<glyph unicode="&#xe904;" glyph-name="user-check" d="M77.569 285.099c36.007 36.006 84.843 56.235 135.764 56.235h298.667c50.923 0 99.759-20.228 135.765-56.235s56.235-84.843 56.235-135.765v-85.333c0-11.78-9.553-21.333-21.333-21.333s-21.333 9.553-21.333 21.333v85.333c0 39.607-15.731 77.589-43.738 105.596s-65.988 43.738-105.596 43.738h-298.667c-39.606 0-77.589-15.731-105.594-43.738s-43.739-65.988-43.739-105.596v-85.333c0-11.78-9.551-21.333-21.333-21.333s-21.333 9.553-21.333 21.333v85.333c0 50.923 20.229 99.759 56.236 135.765zM362.667 810.667c-82.475 0-149.333-66.859-149.333-149.333s66.859-149.333 149.333-149.333c82.475 0 149.333 66.859 149.333 149.333s-66.859 149.333-149.333 149.333zM170.667 661.333c0 106.039 85.961 192 192 192s192-85.961 192-192c0-106.039-85.961-192-192-192s-192 85.961-192 192zM996.42 591.085c8.329-8.331 8.329-21.839 0-30.17l-170.667-170.669c-8.333-8.329-21.841-8.329-30.174 0l-85.333 85.333c-8.329 8.333-8.329 21.841 0 30.174 8.333 8.329 21.841 8.329 30.174 0l70.246-70.251 155.58 155.582c8.333 8.332 21.841 8.332 30.174 0z" />
<glyph unicode="&#xe905;" glyph-name="users" d="M77.569 285.099c36.007 36.006 84.843 56.235 135.764 56.235h341.333c50.923 0 99.759-20.228 135.765-56.235s56.235-84.843 56.235-135.765v-85.333c0-11.78-9.553-21.333-21.333-21.333s-21.333 9.553-21.333 21.333v85.333c0 39.607-15.731 77.589-43.738 105.596s-65.988 43.738-105.596 43.738h-341.333c-39.606 0-77.589-15.731-105.594-43.738s-43.739-65.988-43.739-105.596v-85.333c0-11.78-9.551-21.333-21.333-21.333s-21.333 9.553-21.333 21.333v85.333c0 50.923 20.229 99.759 56.236 135.765zM384 810.667c-82.475 0-149.333-66.859-149.333-149.333s66.859-149.333 149.333-149.333c82.475 0 149.333 66.859 149.333 149.333s-66.859 149.333-149.333 149.333zM192 661.333c0 106.039 85.961 192 192 192s192-85.961 192-192c0-106.039-85.961-192-192-192s-192 85.961-192 192zM832.678 319.787c2.944 11.409 14.579 18.27 25.988 15.322 41.19-10.633 77.683-34.65 103.744-68.271 26.065-33.621 40.226-74.948 40.256-117.487v-85.35c0-11.78-9.553-21.333-21.333-21.333s-21.333 9.553-21.333 21.333v85.316c0 0.004 0 0.009 0 0.013 0 0 0 0.004 0 0.004-0.030 33.084-11.042 65.216-31.309 91.362-20.271 26.15-48.653 44.83-80.691 53.103-11.409 2.944-18.27 14.579-15.322 25.988zM661.999 831.745c2.923 11.414 14.545 18.298 25.958 15.375 41.301-10.575 77.905-34.594 104.047-68.271s40.329-75.097 40.329-117.729c0-42.632-14.187-84.052-40.329-117.729s-62.746-57.695-104.047-68.272c-11.413-2.923-23.036 3.964-25.958 15.377s3.964 23.036 15.377 25.958c32.119 8.222 60.591 26.905 80.926 53.098 20.331 26.193 31.364 58.409 31.364 91.567s-11.034 65.373-31.364 91.567c-20.335 26.193-48.806 44.875-80.926 53.1-11.413 2.923-18.3 14.544-15.377 25.958z" />
<glyph unicode="&#xe906;" glyph-name="book-open" d="M64 832c0 11.782 9.551 21.333 21.333 21.333h256c50.921 0 99.759-20.229 135.765-56.236s56.235-84.843 56.235-135.764v-597.333c0-11.78-9.553-21.333-21.333-21.333s-21.333 9.553-21.333 21.333c0 28.288-11.238 55.42-31.241 75.426-20.006 20.002-47.136 31.241-75.426 31.241h-298.667c-11.782 0-21.333 9.553-21.333 21.333v640zM490.667 168.512v492.821c0 39.606-15.731 77.589-43.738 105.594s-65.99 43.739-105.596 43.739h-234.667v-597.333h277.333c39.606 0 77.589-15.731 105.596-43.738 0.358-0.358 0.717-0.721 1.071-1.084zM546.901 797.098c36.006 36.007 84.843 56.236 135.765 56.236h256c11.78 0 21.333-9.551 21.333-21.333v-640c0-11.78-9.553-21.333-21.333-21.333h-298.667c-28.288 0-55.42-11.238-75.426-31.241-20.002-20.006-31.241-47.138-31.241-75.426 0-11.78-9.553-21.333-21.333-21.333s-21.333 9.553-21.333 21.333v597.333c0 50.921 20.228 99.758 56.235 135.764zM533.333 168.512c0.354 0.363 0.713 0.725 1.071 1.084 28.006 28.006 65.988 43.738 105.596 43.738h277.333v597.333h-234.667c-39.607 0-77.589-15.733-105.596-43.739s-43.738-65.989-43.738-105.594v-492.821z" />
<glyph unicode="&#xe907;" glyph-name="menu" d="M106.667 832c0 11.782 9.551 21.333 21.333 21.333h298.667c11.78 0 21.333-9.551 21.333-21.333v-298.667c0-11.78-9.553-21.333-21.333-21.333h-298.667c-11.782 0-21.333 9.553-21.333 21.333v298.667zM149.333 810.667v-256h256v256h-256zM576 832c0 11.782 9.553 21.333 21.333 21.333h298.667c11.78 0 21.333-9.551 21.333-21.333v-298.667c0-11.78-9.553-21.333-21.333-21.333h-298.667c-11.78 0-21.333 9.553-21.333 21.333v298.667zM618.667 810.667v-256h256v256h-256zM576 362.667c0 11.78 9.553 21.333 21.333 21.333h298.667c11.78 0 21.333-9.553 21.333-21.333v-298.667c0-11.78-9.553-21.333-21.333-21.333h-298.667c-11.78 0-21.333 9.553-21.333 21.333v298.667zM618.667 341.333v-256h256v256h-256zM106.667 362.667c0 11.78 9.551 21.333 21.333 21.333h298.667c11.78 0 21.333-9.553 21.333-21.333v-298.667c0-11.78-9.553-21.333-21.333-21.333h-298.667c-11.782 0-21.333 9.553-21.333 21.333v298.667zM149.333 341.333v-256h256v256h-256z" />
<glyph unicode="&#xe908;" glyph-name="bell" d="M300.81 829.856c56.011 56.011 131.979 87.477 211.19 87.477s155.179-31.467 211.187-87.477c56.013-56.011 87.479-131.978 87.479-211.189 0-143.049 30.596-231.876 58.79-283.567 14.157-25.954 27.942-42.982 37.517-53.090 4.8-5.065 8.567-8.422 10.842-10.317 1.135-0.947 1.894-1.527 2.223-1.771 0.051-0.038 0.094-0.068 0.124-0.090 15.296-10.509 22.063-29.726 16.674-47.531-5.449-17.993-22.033-30.302-40.836-30.302h-768c-18.802 0-35.388 12.309-40.836 30.302-5.391 17.805 1.378 37.022 16.674 47.531 0.030 0.021 0.070 0.051 0.122 0.090 0.329 0.243 1.091 0.823 2.226 1.771 2.27 1.894 6.042 5.252 10.84 10.317 9.576 10.108 23.361 27.136 37.517 53.090 28.195 51.691 58.79 140.518 58.79 283.567 0 79.212 31.466 155.178 87.477 211.189zM104.268 270.123c0.003 0.004 0.007 0.009 0.010 0.009 0 0 0 0 0 0l-0.010-0.009zM219.704 277.333h584.593c-3.247 5.321-6.507 10.948-9.754 16.9-35.806 65.643-69.21 168.815-69.21 324.433 0 56.579-22.477 110.842-62.485 150.849s-94.268 62.484-150.848 62.484c-56.58 0-110.842-22.476-150.85-62.484s-62.484-94.27-62.484-150.849c0-155.618-33.405-258.79-69.21-324.433-3.247-5.952-6.506-11.58-9.752-16.9zM416.778 100.907c20.385 11.823 46.493 4.885 58.316-15.501 3.75-6.464 9.135-11.831 15.612-15.561 6.477-3.733 13.82-5.696 21.295-5.696s14.818 1.963 21.295 5.696c6.477 3.729 11.861 9.097 15.612 15.561 11.823 20.386 37.931 27.324 58.317 15.501 20.382-11.827 27.319-37.935 15.497-58.317-11.251-19.396-27.401-35.499-46.835-46.69-19.43-11.191-41.459-17.084-63.885-17.084s-44.454 5.892-63.885 17.084c-19.435 11.191-35.583 27.294-46.835 46.69-11.824 20.382-4.885 46.49 15.498 58.317z" />
<glyph unicode="&#xe909;" glyph-name="search" d="M469.333 778.105c-158.748 0-287.438-128.69-287.438-287.438 0-158.751 128.69-287.441 287.438-287.441 158.751 0 287.441 128.69 287.441 287.441 0 158.748-128.69 287.438-287.441 287.438zM74.105 490.667c0 218.278 176.95 395.228 395.228 395.228s395.23-176.95 395.23-395.228c0-218.277-176.953-395.23-395.23-395.23s-395.228 176.953-395.228 395.23zM672.288 287.706c21.051 21.051 55.172 21.051 76.223 0l185.597-185.597c21.046-21.046 21.046-55.172 0-76.218-21.046-21.051-55.172-21.051-76.218 0l-185.603 185.597c-21.046 21.046-21.046 55.172 0 76.218z" />
<glyph unicode="&#xe90a;" glyph-name="close-round" d="M512 960c-282.77 0-512-229.23-512-512s229.23-512 512-512c282.77 0 512 229.23 512 512 0 135.791-53.943 266.020-149.961 362.039s-226.248 149.961-362.039 149.961zM512 21.333c-235.641 0-426.667 191.025-426.667 426.667s191.025 426.667 426.667 426.667c235.641 0 426.667-191.025 426.667-426.667s-191.025-426.667-426.667-426.667zM692.907 628.907c-16.642 16.543-43.518 16.543-60.16 0l-120.747-120.747-120.747 120.747c-16.928 14.497-42.163 13.522-57.923-2.237s-16.734-40.994-2.237-57.923l120.747-120.747-120.747-120.747c-16.543-16.642-16.543-43.518 0-60.16 16.642-16.543 43.518-16.543 60.16 0l120.747 120.747 120.747-120.747c16.642-16.543 43.518-16.543 60.16 0 16.543 16.642 16.543 43.518 0 60.16l-120.747 120.747 120.747 120.747c16.543 16.642 16.543 43.518 0 60.16z" />
<glyph unicode="&#xe90b;" glyph-name="notification" d="M235.29 277.333l50.347 50.432c16.128 16.128 25.003 37.547 25.003 60.331v199.552c0 57.899 25.173 113.237 69.12 151.723 44.288 38.827 100.693 55.893 159.445 48.171 99.285-13.184 174.165-102.955 174.165-208.853v-190.592c0-22.784 8.875-44.203 24.96-60.288l50.389-50.475h-553.429zM597.316 177.451c0-38.357-39.083-70.784-85.333-70.784s-85.333 32.427-85.333 70.784v14.549h170.667v-14.549zM875.546 311.125l-76.843 76.971v190.592c0 148.523-106.752 274.688-248.32 293.419-82.005 10.923-164.779-14.123-226.859-68.565-62.464-54.699-98.219-133.376-98.219-215.893l-0.043-199.552-76.843-76.971c-20.011-20.053-25.941-49.877-15.104-76.032 10.88-26.197 36.181-43.093 64.512-43.093h143.488v-14.549c0-86.101 76.544-156.117 170.667-156.117s170.667 70.016 170.667 156.117v14.549h143.488c28.331 0 53.589 16.896 64.427 43.051 10.88 26.197 4.992 56.064-15.019 76.075v0z" />
<glyph unicode="&#xe90c;" glyph-name="arrow-left" d="M170.667 448c0 23.565 19.103 42.667 42.667 42.667h597.333c23.565 0 42.667-19.102 42.667-42.667s-19.102-42.667-42.667-42.667h-597.333c-23.564 0-42.667 19.102-42.667 42.667zM542.17 776.837c16.661-16.663 16.661-43.677 0-60.34l-268.497-268.497 268.497-268.497c16.661-16.661 16.661-43.678 0-60.339s-43.678-16.661-60.339 0l-298.667 298.667c-16.662 16.661-16.662 43.678 0 60.339l298.667 298.667c16.661 16.662 43.678 16.662 60.339 0z" />
<glyph unicode="&#xe90d;" glyph-name="down" horiz-adv-x="1536" d="M792.405-5.461l-724.139 724.139 241.493 241.323 482.645-482.816 482.645 482.816 241.493-241.323z" />
<glyph unicode="&#xe90e;" glyph-name="tick-transparent" horiz-adv-x="1280" d="M0 407.16l438.328-439.165 841.672 840.84-120.836 119.165-720.836-720-319.166 319.164-119.162-120.004z" />
<glyph unicode="&#xe90f;" glyph-name="question-menu" d="M106.667 448c0 11.78 9.551 21.333 21.333 21.333h768c11.78 0 21.333-9.553 21.333-21.333s-9.553-21.333-21.333-21.333h-768c-11.782 0-21.333 9.553-21.333 21.333zM106.667 704c0 11.782 9.551 21.333 21.333 21.333h768c11.78 0 21.333-9.551 21.333-21.333s-9.553-21.333-21.333-21.333h-768c-11.782 0-21.333 9.551-21.333 21.333zM106.667 192c0 11.78 9.551 21.333 21.333 21.333h768c11.78 0 21.333-9.553 21.333-21.333s-9.553-21.333-21.333-21.333h-768c-11.782 0-21.333 9.553-21.333 21.333z" />
<glyph unicode="&#xe910;" glyph-name="plus" d="M572.237 387.773h361.426c33.27 0 60.242 26.972 60.237 60.238 0 33.27-26.967 60.238-60.237 60.238h-361.431l0.005 361.432c0 33.27-26.967 60.238-60.238 60.238-33.268-0.002-60.238-26.973-60.238-60.238l0.003-361.427h-361.431c-33.267-0.003-60.238-26.973-60.238-60.238 0-33.27 26.968-60.237 60.238-60.237h361.431v-361.431c-0.002-33.265 26.968-60.237 60.237-60.237s60.237 26.967 60.237 60.237v361.426z" />
<glyph unicode="&#xe911;" glyph-name="close" d="M633.702 447.998l365.093 365.094c33.609 33.607 33.609 88.095 0 121.698-33.609 33.607-88.093 33.607-121.695 0l-365.101-365.099-365.098 365.104c-33.608 33.607-88.091 33.607-121.698 0-33.602-33.607-33.602-88.096 0-121.698l365.099-365.094-365.099-365.102c-33.602-33.602-33.602-88.093 0-121.695 33.607-33.609 88.091-33.609 121.698 0l365.098 365.099 365.101-365.099c33.602-33.609 88.086-33.609 121.695 0s33.609 88.093 0 121.695l-365.093 365.098z" />
<glyph unicode="&#xe912;" glyph-name="page-right" horiz-adv-x="922" d="M545.72 471.596c6.356-6.836 9.527-14.71 9.527-23.601s-3.168-16.752-9.527-23.584l-444.588-478.179c-6.359-6.835-13.677-10.232-21.944-10.232s-15.588 3.418-21.944 10.232l-47.711 51.299c-6.359 6.835-9.533 14.71-9.533 23.611 0 8.88 3.174 16.752 9.533 23.587l374.941 403.266-374.941 403.247c-6.359 6.839-9.533 14.71-9.533 23.601 0 8.895 3.174 16.765 9.533 23.601l47.711 51.292c6.356 6.85 13.664 10.264 21.944 10.264s15.588-3.425 21.944-10.264l444.588-478.14zM375.943-2.469c-6.359 6.835-9.533 14.71-9.533 23.611 0 8.88 3.174 16.752 9.533 23.587l374.938 403.266-374.947 403.247c-6.359 6.839-9.533 14.71-9.533 23.601 0 8.895 3.174 16.765 9.533 23.601l47.707 51.292c6.359 6.85 13.677 10.264 21.94 10.264 8.268 0 15.588-3.425 21.955-10.264l444.582-478.14c6.359-6.836 9.537-14.71 9.537-23.601s-3.177-16.752-9.537-23.584l-444.582-478.179c-6.359-6.835-13.678-10.232-21.937-10.232-8.268 0-15.575 3.418-21.944 10.232l-47.711 51.299z" />
<glyph unicode="&#xe913;" glyph-name="page-left" horiz-adv-x="922" d="M375.88 471.596c-6.356-6.836-9.527-14.71-9.527-23.601s3.168-16.752 9.527-23.584l444.588-478.179c6.359-6.835 13.677-10.232 21.944-10.232s15.588 3.418 21.943 10.232l47.711 51.299c6.359 6.835 9.533 14.71 9.533 23.611 0 8.88-3.174 16.752-9.533 23.587l-374.941 403.266 374.941 403.247c6.359 6.839 9.533 14.71 9.533 23.601 0 8.895-3.174 16.765-9.533 23.601l-47.711 51.292c-6.355 6.85-13.663 10.264-21.943 10.264s-15.588-3.425-21.944-10.264l-444.588-478.14zM545.657-2.469c6.359 6.835 9.533 14.71 9.533 23.611 0 8.88-3.174 16.752-9.533 23.587l-374.938 403.266 374.947 403.247c6.359 6.839 9.533 14.71 9.533 23.601 0 8.895-3.174 16.765-9.533 23.601l-47.707 51.292c-6.359 6.85-13.677 10.264-21.94 10.264-8.268 0-15.588-3.425-21.955-10.264l-444.582-478.14c-6.359-6.836-9.537-14.71-9.537-23.601s3.178-16.752 9.537-23.584l444.582-478.179c6.359-6.835 13.678-10.232 21.937-10.232 8.268 0 15.575 3.418 21.944 10.232l47.711 51.299z" />
<glyph unicode="&#xe914;" glyph-name="Delete" horiz-adv-x="970" d="M928.973 808.244h-235.434v52.476c-1.417 53.895-45.385 97.862-99.279 99.28h-229.761c-53.895-1.418-97.862-45.385-99.28-99.28v-52.476h-236.853c-15.601 0-28.366-12.764-28.366-28.366s12.765-28.365 28.366-28.365h83.679v-716.233c0-55.312 43.967-99.279 99.279-99.279h534.692c55.312 0 99.279 43.967 99.279 99.279v716.233h83.677c15.603 0 28.37 12.764 28.37 28.365s-12.768 28.366-28.37 28.366zM321.95 860.72c1.419 22.693 19.856 41.13 42.549 42.549h229.761c22.695-1.419 41.132-19.856 42.55-42.549v-52.476h-314.86v52.476zM788.566 35.279c0-24.113-18.437-42.55-42.55-42.55h-533.274c-24.111 0-42.548 18.437-42.548 42.55v716.233h619.789l-1.417-716.233zM351.734 157.249c15.601 0 28.365 12.768 28.365 28.37v381.515c0 15.601-12.764 28.366-28.365 28.366s-28.366-12.765-28.366-28.366v-381.515c0-15.603 12.764-28.37 28.366-28.37zM607.022 157.249c15.603 0 28.365 12.768 28.365 28.37v381.515c0 15.601-12.762 28.366-28.365 28.366-15.597 0-28.365-12.765-28.365-28.366v-381.515c0-15.603 12.768-28.37 28.365-28.37z" />
<glyph unicode="&#xe915;" glyph-name="arrow-down" d="M512 320l-181.035 181.035 60.373 60.331 120.661-120.704 120.661 120.704 60.373-60.331z" />
<glyph unicode="&#xe916;" glyph-name="order-management" d="M684.115 240.872c21.423 0 38.809-17.319 38.809-38.774 0-21.196-17.386-38.774-38.809-38.774h-385.037c-21.448 0-38.809 17.578-38.809 38.774 0 21.455 17.361 38.774 38.809 38.774h385.037zM685.978 403.464c21.448 0 38.809-17.319 38.809-38.774s-17.361-38.774-38.809-38.774h-385.037c-21.423 0-38.809 17.319-38.809 38.774s17.386 38.774 38.809 38.774h385.037zM684.115 565.798c21.423 0 38.809-17.319 38.809-38.774 0-21.196-17.386-38.774-38.809-38.774h-385.037c-21.448 0-38.809 17.578-38.809 38.774 0 21.455 17.361 38.774 38.809 38.774h385.037zM530.845 728.39c21.448 0 38.809-17.319 38.809-38.774s-17.361-38.774-38.809-38.774h-231.767c-21.448 0-38.809 17.319-38.809 38.774s17.361 38.774 38.809 38.774h231.767zM171.396 882.452c-7.011 0-12.936-5.945-12.936-12.925v-841.654c0-6.979 5.925-12.925 12.936-12.925h644.152c7.011 0 12.936 5.945 12.936 12.925v841.654c0 6.979-5.925 12.925-12.936 12.925h-644.152zM815.548-62.599h-644.152c-49.934 0-90.554 40.583-90.554 90.473v841.654c0 49.889 40.62 90.473 90.554 90.473h644.152c49.934 0 90.554-40.583 90.554-90.473v-841.654c0-49.889-40.62-90.473-90.554-90.473v0z" />
<glyph unicode="&#xe917;" glyph-name="add-multiple-products" d="M471.653 324.134h-100.831v100.74c0 15.641-12.705 28.335-28.36 28.335-15.674 0-28.36-12.694-28.36-28.335v-100.74h-100.831c-15.674 0-28.36-12.694-28.36-28.335s12.687-28.335 28.36-28.335h100.831v-100.74c0-15.641 12.687-28.335 28.36-28.335 15.655 0 28.36 12.694 28.36 28.335v100.74h100.831c15.655 0 28.36 12.694 28.36 28.335s-12.705 28.335-28.36 28.335zM628.183 57.56c0-26.049-21.214-47.225-47.267-47.225h-476.928c-26.054 0-47.267 21.176-47.267 47.225v476.478c0 26.030 21.214 47.225 47.267 47.225h476.928c26.054 0 47.267-21.194 47.267-47.225v-476.478zM580.916 637.933h-476.928c-57.326 0-103.988-46.601-103.988-103.894v-476.478c0-57.274 46.662-103.894 103.988-103.894h476.928c57.345 0 103.988 46.62 103.988 103.894v476.478c0 57.293-46.643 103.894-103.988 103.894v0zM889.392 960c57.601 0 104.7-44.966 108.11-101.71l0.198-6.598v-434.342c0-57.601-44.966-104.7-101.71-108.11l-6.598-0.198h-129.226v59.077h129.226c25.49 0 46.455 19.372 48.977 44.197l0.254 5.034v434.342c0 25.49-19.372 46.455-44.197 48.977l-5.034 0.254h-468.162c-25.49 0-46.455-19.372-48.977-44.197l-0.254-5.034v-125.816h-59.077v125.816c0 57.601 44.966 104.7 101.71 108.11l6.598 0.198h468.162z" />
<glyph unicode="&#xe918;" glyph-name="add-single-products" d="M681.276 506.735h-145.644v145.513c0 22.592-18.352 40.928-40.965 40.928-22.64 0-40.965-18.336-40.965-40.928v-145.513h-145.644c-22.64 0-40.965-18.336-40.965-40.928s18.325-40.928 40.965-40.928h145.644v-145.513c0-22.592 18.325-40.928 40.965-40.928 22.613 0 40.965 18.336 40.965 40.928v145.513h145.644c22.613 0 40.965 18.336 40.965 40.928s-18.352 40.928-40.965 40.928zM907.376 121.684c0-37.627-30.642-68.213-68.275-68.213h-688.895c-37.633 0-68.275 30.587-68.275 68.213v688.247c0 37.599 30.642 68.213 68.275 68.213h688.895c37.633 0 68.275-30.614 68.275-68.213v-688.247zM839.101 960h-688.895c-82.804 0-150.205-67.313-150.205-150.070v-688.247c0-82.729 67.401-150.070 150.205-150.070h688.895c82.831 0 150.205 67.34 150.205 150.070v688.247c0 82.757-67.374 150.070-150.205 150.070v0z" />
<glyph unicode="&#xe919;" glyph-name="Home" d="M769.014 91.223h-158.692v211.882c0 43.046-37.837 78.062-84.354 78.062h-114.845c-46.517 0-84.576-35.016-84.576-78.062v-211.882h-151.124c-6.009 0-11.128 5.13-11.128 11.152v429.564l306.477 299.535 305.809-287.937 3.561-441.162c0-6.022-5.119-11.152-11.128-11.152zM843.129 558.48c0 0 0 0.223 0 0.446s0 0.446 0 0.892c-0.223 4.015-1.113 8.029-2.671 11.821l-0.223 0.223c-1.781 4.015-4.229 7.583-7.345 10.483 0 0-0.223 0-0.223 0.223l-339.417 319.608c-12.909 12.267-33.385 12.044-46.072-0.446l-339.417-331.652c-0.223-0.223-0.223-0.223-0.223-0.223-3.116-3.122-5.564-6.691-7.345-10.706 0-0.223 0-0.223 0-0.223-1.558-3.792-2.448-7.806-2.448-12.044 0-0.223-0.223-0.446-0.223-0.669 0 0 0 0 0-0.223v-443.615c0-43.046 34.943-78.062 77.899-78.062h184.51c18.473 0 33.385 14.943 33.385 33.455 0 1.115-0.223 2.453-0.223 3.569 0 1.338 0.223 2.453 0.223 3.792v237.977c0 4.461 6.9 11.152 17.806 11.152h114.845c10.906 0 17.583-6.691 17.583-11.152v-237.977c0-1.338 0.445-2.453 0.445-3.792 0-1.115-0.445-2.453-0.445-3.569 0-18.512 15.135-33.455 33.385-33.455h192.077c42.956 0 77.899 35.016 77.899 78.285l-3.784 455.882z" />
<glyph unicode="&#xe91a;" glyph-name="eye" d="M980.114 472.381c-4.876 14.629-199.924 316.952-468.114 316.952s-463.238-302.324-468.114-316.952l-19.505-24.381 14.629-24.381c9.752-14.629 204.8-316.952 472.99-316.952s463.238 302.324 468.114 316.952l19.505 24.381-19.505 24.381zM512 204.19c-170.667 0-316.952 175.543-370.59 243.81 48.762 68.267 195.048 243.81 370.59 243.81 170.667 0 316.952-175.543 370.59-243.81-48.762-68.267-199.924-243.81-370.59-243.81zM512 643.048c-107.276 0-195.048-87.771-195.048-195.048s87.771-195.048 195.048-195.048c107.276 0 195.048 87.771 195.048 195.048s-87.771 195.048-195.048 195.048zM512 350.476c-53.638 0-97.524 43.886-97.524 97.524s43.886 97.524 97.524 97.524c53.638 0 97.524-43.886 97.524-97.524s-43.886-97.524-97.524-97.524z" />
<glyph unicode="&#xe91b;" glyph-name="profile" horiz-adv-x="942" d="M443.656 880.353c84.612 0 153.459-70.886 153.459-157.702 0-87.081-68.847-157.702-153.459-157.702s-153.433 70.621-153.433 157.702c0 86.816 68.821 157.702 153.433 157.702zM443.656 485.302c127.357 0 230.989 106.462 230.989 237.349s-103.633 237.349-230.989 237.349c-127.357 0-230.964-106.462-230.964-237.349s103.607-237.349 230.964-237.349v0zM809.781 15.647h-732.25v184.782c0 46.726 17.806 92.391 47.63 122.391 15.248 15.398 40.368 33.983 76.213 32.921 19.77-0.531 81.019 0.265 155.5 0.531 111.282 0.531 251.638 1.327 324.259 1.327 88.385 0 128.649-74.072 128.649-142.834v-199.118zM681.132 437.248c-72.698 0-213.209-0.796-324.62-1.327-73.938-0.265-135.007-0.531-154.079-0.531-0.078 0-0.181 0-0.284 0-48.017 0.796-94.742-18.85-131.285-55.753-44.373-44.603-70.863-111.506-70.863-179.207v-224.606c0-21.77 17.341-39.824 38.765-39.824h809.781c21.398 0 38.765 18.053 38.765 39.824v238.942c0 107.789-72.258 222.482-206.18 222.482v0z" />
<glyph unicode="&#xe91c;" glyph-name="delete-danger" d="M725.333 704h213.333v-85.333h-85.333v-554.667c0-23.564-19.103-42.667-42.667-42.667h-597.333c-23.564 0-42.667 19.103-42.667 42.667v554.667h-85.333v85.333h213.333v128c0 23.564 19.103 42.667 42.667 42.667h341.333c23.564 0 42.667-19.103 42.667-42.667v-128zM768 618.667h-512v-512h512v512zM384 490.667h85.333v-256h-85.333v256zM554.667 490.667h85.333v-256h-85.333v256zM384 789.333v-85.333h256v85.333h-256z" />
<glyph unicode="&#xe91d;" glyph-name="edit" d="M213.333 149.333h60.331l397.397 397.397-60.331 60.331-397.397-397.397v-60.331zM896 64h-768v181.035l573.227 573.227c16.661 16.656 43.669 16.656 60.331 0l120.704-120.704c16.656-16.661 16.656-43.669 0-60.331l-487.893-487.893h501.632v-85.333zM671.061 667.392l60.331-60.331 60.331 60.331-60.331 60.331-60.331-60.331z" />
<glyph unicode="&#xe91e;" glyph-name="up" horiz-adv-x="1536" d="M792.405 960.171l724.139-724.139-241.493-241.323-482.645 482.816-482.645-482.816-241.493 241.323z" />
<glyph unicode="&#xe91f;" glyph-name="eye-hide" d="M512 661.333c117.76 0 213.333-95.573 213.333-213.333 0-27.733-5.547-53.76-15.36-78.080l124.587-124.587c64.427 53.76 115.2 123.307 146.347 202.667-73.813 187.307-256 320-469.333 320-59.733 0-116.907-10.667-169.813-29.867l92.16-92.16c24.32 9.813 50.347 15.36 78.080 15.36zM85.333 777.813l116.907-116.907c-70.827-55.040-126.293-128.427-159.573-212.907 73.813-187.307 256-320 469.333-320 66.133 0 129.28 12.8 186.88 35.84l17.92-17.92 125.013-124.587 54.187 54.187-756.48 756.48-54.187-54.187zM321.28 541.867l66.133-66.133c-2.133-8.96-3.413-18.347-3.413-27.733 0-70.827 57.173-128 128-128 9.387 0 18.773 1.28 27.733 3.413l66.133-66.133c-28.587-14.080-60.16-22.613-93.867-22.613-117.76 0-213.333 95.573-213.333 213.333 0 33.707 8.533 65.28 22.613 93.867zM505.173 575.147l134.4-134.4 0.853 6.827c0 70.827-57.173 128-128 128l-7.253-0.427z" />
<glyph unicode="&#xe920;" glyph-name="email" horiz-adv-x="1182" d="M1034.004 918.804h-919.079c-63.33 0-114.924-51.594-114.924-114.846v-689.388c0-63.252 51.594-114.846 114.924-114.846h919.079c63.33 0 114.846 51.594 114.846 114.846v689.467c0 63.252-51.515 114.846-114.846 114.846zM953.029 803.958l-376.123-378.407-380.613 378.486h756.815zM577.3 286.917c15.202 0 29.932 6.144 40.566 17.014l416.138 418.58v-607.941h-919.079v608.414l421.73-419.289z" />
<glyph unicode="&#xe921;" glyph-name="password" horiz-adv-x="973" d="M652.8 502.323h-28.723v96.051c0 79.36-64.614 144.026-144.026 144.026-79.36 0-144.026-64.666-144.026-144.026v-96.102h-28.672c-10.598 0-19.302-8.499-19.302-19.251v-201.677c0-10.598 8.499-19.251 19.251-19.251h345.702c10.598 0 19.251 8.499 19.251 19.251v201.728c-0.154 10.752-8.858 19.251-19.456 19.251zM528.077 502.323h-96v96.051c0 26.419 21.504 47.974 47.974 47.974s48.026-21.504 48.026-47.974v-96.102zM480.051 934.4c-264.755 0-480.051-215.296-480.051-480.051 0-264.806 215.296-480.051 480.051-480.051 264.806 0 480.051 215.245 480.051 480.051 0 264.755-215.245 480.051-480.051 480.051zM480.051 70.298c-211.661 0-384 172.339-384 384 0 211.712 172.339 384.102 384 384.102 211.712 0 384.051-172.39 384.051-384.051 0-211.712-172.339-384.051-384-384.051z" />
<glyph unicode="&#xe922;" glyph-name="add-multiple-products1" d="M471.653 324.134h-100.831v100.74c0 15.641-12.705 28.335-28.36 28.335-15.674 0-28.36-12.694-28.36-28.335v-100.74h-100.831c-15.674 0-28.36-12.694-28.36-28.335s12.687-28.335 28.36-28.335h100.831v-100.74c0-15.641 12.687-28.335 28.36-28.335 15.655 0 28.36 12.694 28.36 28.335v100.74h100.831c15.655 0 28.36 12.694 28.36 28.335s-12.705 28.335-28.36 28.335zM628.183 57.56c0-26.049-21.214-47.225-47.267-47.225h-476.928c-26.054 0-47.267 21.176-47.267 47.225v476.478c0 26.030 21.214 47.225 47.267 47.225h476.928c26.054 0 47.267-21.194 47.267-47.225v-476.478zM580.916 637.933h-476.928c-57.326 0-103.988-46.601-103.988-103.894v-476.478c0-57.274 46.662-103.894 103.988-103.894h476.928c57.345 0 103.988 46.62 103.988 103.894v476.478c0 57.293-46.643 103.894-103.988 103.894v0zM889.392 960c57.601 0 104.7-44.966 108.11-101.71l0.198-6.598v-434.342c0-57.601-44.966-104.7-101.71-108.11l-6.598-0.198h-129.226v59.077h129.226c25.49 0 46.455 19.372 48.977 44.197l0.254 5.034v434.342c0 25.49-19.372 46.455-44.197 48.977l-5.034 0.254h-468.162c-25.49 0-46.455-19.372-48.977-44.197l-0.254-5.034v-125.816h-59.077v125.816c0 57.601 44.966 104.7 101.71 108.11l6.598 0.198h468.162z" />
<glyph unicode="&#xe923;" glyph-name="add-single-products1" d="M681.276 506.735h-145.644v145.513c0 22.592-18.352 40.928-40.965 40.928-22.64 0-40.965-18.336-40.965-40.928v-145.513h-145.644c-22.64 0-40.965-18.336-40.965-40.928s18.325-40.928 40.965-40.928h145.644v-145.513c0-22.592 18.325-40.928 40.965-40.928 22.613 0 40.965 18.336 40.965 40.928v145.513h145.644c22.613 0 40.965 18.336 40.965 40.928s-18.352 40.928-40.965 40.928zM907.376 121.684c0-37.627-30.642-68.213-68.275-68.213h-688.895c-37.633 0-68.275 30.587-68.275 68.213v688.247c0 37.599 30.642 68.213 68.275 68.213h688.895c37.633 0 68.275-30.614 68.275-68.213v-688.247zM839.101 960h-688.895c-82.804 0-150.205-67.313-150.205-150.070v-688.247c0-82.729 67.401-150.070 150.205-150.070h688.895c82.831 0 150.205 67.34 150.205 150.070v688.247c0 82.757-67.374 150.070-150.205 150.070v0z" />
<glyph unicode="&#xe924;" glyph-name="back" horiz-adv-x="666" d="M17.306 441.958l469.862 484.096 156.57-161.434-313.293-322.662 313.293-322.611-156.57-161.434z" />
<glyph unicode="&#xe932;" glyph-name="invoice" horiz-adv-x="780" d="M773.851 740.425l-216.747 213.333c-4.047 3.998-9.509 6.242-15.311 6.242h-455.095c-47.787 0-86.699-38.278-86.699-85.333v-853.333c0-47.055 38.912-85.333 86.699-85.333h606.793c47.787 0 86.699 38.278 86.699 85.333v704.024c0 5.656-2.292 11.069-6.339 15.067zM563.493 887.198l142.726-140.532h-99.426c-23.893 0-43.301 19.163-43.301 42.667v97.816zM736.792 21.333c0-23.503-19.407-42.667-43.349-42.667h-606.744c-23.893 0-43.398 19.163-43.398 42.667v853.333c0 23.503 19.505 42.667 43.398 42.667h433.445v-128c0-47.055 38.863-85.333 86.65-85.333h130.048v-682.667zM629.516 361.838h-478.842c-11.995 0-21.748-9.411-21.748-21.114s9.752-21.114 21.748-21.114h478.842c11.995 0 21.748 9.411 21.748 21.114s-9.752 21.114-21.748 21.114zM629.516 491.886h-478.842c-11.995 0-21.748-9.46-21.748-21.114 0-11.703 9.752-21.163 21.748-21.163h478.842c11.995 0 21.748 9.46 21.748 21.163s-9.752 21.114-21.748 21.114zM629.516 235.057h-478.842c-11.995 0-21.748-9.411-21.748-21.114s9.752-21.114 21.748-21.114h478.842c11.995 0 21.748 9.411 21.748 21.114s-9.752 21.114-21.748 21.114zM411.355 105.058h-260.681c-12.044 0-21.748-9.46-21.748-21.163s9.752-21.114 21.748-21.114h260.681c11.995 0 21.699 9.46 21.699 21.114 0 11.703-9.704 21.163-21.699 21.163zM347.136 597.553c0-11.703 9.704-21.163 21.699-21.163h260.681c12.044 0 21.748 9.46 21.748 21.163s-9.752 21.114-21.748 21.114h-260.681c-11.995 0-21.699-9.46-21.699-21.114zM193.39 617.838h-42.959c-11.898 0-21.455-9.557-21.455-21.406 0-11.8 9.557-21.358 21.455-21.358h21.455c0-11.849 9.655-21.455 21.504-21.455 11.898 0 21.455 9.606 21.455 21.455v3.901c25.015 8.875 43.008 32.427 43.008 60.27 0 35.401-28.916 64.219-64.463 64.219-11.849 0-21.455 9.606-21.455 21.406s9.606 21.406 21.455 21.406h42.959c11.898 0 21.504 9.557 21.504 21.406 0 11.8-9.606 21.358-21.455 21.358h-21.504c0 11.849-9.606 21.455-21.455 21.455-11.947 0-21.553-9.606-21.553-21.455v-3.901c-24.917-8.875-42.91-32.427-42.91-60.27 0-35.401 28.867-64.219 64.414-64.219 11.849 0 21.455-9.606 21.455-21.406s-9.606-21.406-21.455-21.406z" />
<glyph unicode="&#xe9cb;" glyph-name="link" d="M440.236 324.234c-13.31 0-26.616 5.076-36.77 15.23-95.134 95.136-95.134 249.934 0 345.070l192 192c46.088 46.086 107.36 71.466 172.534 71.466s126.448-25.38 172.536-71.464c95.132-95.136 95.132-249.934 0-345.070l-87.766-87.766c-20.308-20.308-53.23-20.308-73.54 0-20.306 20.306-20.306 53.232 0 73.54l87.766 87.766c54.584 54.586 54.584 143.404 0 197.99-26.442 26.442-61.6 41.004-98.996 41.004s-72.552-14.562-98.996-41.006l-192-191.998c-54.586-54.586-54.586-143.406 0-197.992 20.308-20.306 20.306-53.232 0-73.54-10.15-10.152-23.462-15.23-36.768-15.23zM256-52c-65.176 0-126.45 25.38-172.534 71.464-95.134 95.136-95.134 249.934 0 345.070l87.764 87.764c20.308 20.306 53.234 20.306 73.54 0 20.308-20.306 20.308-53.232 0-73.54l-87.764-87.764c-54.586-54.586-54.586-143.406 0-197.992 26.44-26.44 61.598-41.002 98.994-41.002s72.552 14.562 98.998 41.006l192 191.998c54.584 54.586 54.584 143.406 0 197.992-20.308 20.308-20.306 53.232 0 73.54 20.306 20.306 53.232 20.306 73.54-0.002 95.132-95.134 95.132-249.932 0.002-345.068l-192.002-192c-46.090-46.088-107.364-71.466-172.538-71.466z" />
<glyph unicode="&#xea0b;" glyph-name="minus" d="M0 544v-192c0-17.672 14.328-32 32-32h960c17.672 0 32 14.328 32 32v192c0 17.672-14.328 32-32 32h-960c-17.672 0-32-14.328-32-32z" />
</font>
</defs>
</svg>
