<?xml version="1.0" encoding="utf-8"?>
<!-- Generator: Adobe Illustrator 24.0.3, SVG Export Plug-In . SVG Version: 6.00 Build 0)  -->
<svg version="1.1" id="Layer_1" xmlns="http://www.w3.org/2000/svg" xmlns:xlink="http://www.w3.org/1999/xlink" x="0px" y="0px"
	 viewBox="0 0 130 130" style="enable-background:new 0 0 130 130;" xml:space="preserve">
<style type="text/css">
	.st0{clip-path:url(#SVGID_2_);}
	.st1{clip-path:url(#SVGID_4_);fill:#010101;}
	.st2{clip-path:url(#SVGID_6_);}
	.st3{clip-path:url(#SVGID_8_);fill:#010101;}
	.st4{clip-path:url(#SVGID_10_);}
	.st5{clip-path:url(#SVGID_12_);fill:#010101;}
	.st6{clip-path:url(#SVGID_14_);}
	.st7{clip-path:url(#SVGID_16_);fill:#E3AB24;}
	.st8{clip-path:url(#SVGID_18_);}
	.st9{clip-path:url(#SVGID_20_);fill:#E3AB24;}
	.st10{clip-path:url(#SVGID_22_);}
	.st11{clip-path:url(#SVGID_24_);fill:#E3AB24;}
	.st12{clip-path:url(#SVGID_26_);}
	.st13{clip-path:url(#SVGID_28_);fill:#010101;}
	.st14{clip-path:url(#SVGID_30_);}
	.st15{clip-path:url(#SVGID_32_);fill:#010101;}
	.st16{clip-path:url(#SVGID_34_);}
	.st17{clip-path:url(#SVGID_36_);fill:#010101;}
	.st18{clip-path:url(#SVGID_38_);}
	.st19{clip-path:url(#SVGID_40_);fill:#010101;}
	.st20{clip-path:url(#SVGID_42_);}
	.st21{clip-path:url(#SVGID_44_);fill:#E3AB24;}
	.st22{clip-path:url(#SVGID_46_);}
	.st23{clip-path:url(#SVGID_48_);fill:#E3AB25;}
</style>
<g>
	<g>
		<defs>
			<path id="SVGID_1_" d="M72.8,53.6c0,2.3-0.4,3.8-1.1,4.5c-0.8,0.7-2.7,1.1-5.7,1.1c-2.9,0-4.8-0.3-5.6-1
				c-0.8-0.7-1.2-2.2-1.2-4.5v-6.2h5.9v6.1c0,0.6,0.3,0.9,0.9,0.9s0.9-0.3,0.9-0.9v-5c0-0.8-0.4-1.5-1-1.8l-4.1-2.3
				c-1.7-1-2.6-2.6-2.6-5v-3.9c0-2.3,0.4-3.9,1.2-4.5c0.8-0.7,2.7-1,5.6-1c2.9,0,4.8,0.3,5.6,1c0.8,0.7,1.2,2.2,1.2,4.5v4.7h-6v-4.7
				c0-0.6-0.3-0.9-0.9-0.9c-0.6,0-0.9,0.3-0.9,0.9v3.3c0,0.8,0.4,1.6,1.1,1.9l4,2.2c1.7,0.9,2.6,2.5,2.6,4.6L72.8,53.6z"/>
		</defs>
		<clipPath id="SVGID_2_">
			<use xlink:href="#SVGID_1_"  style="overflow:visible;"/>
		</clipPath>
		<g class="st0">
			<defs>
				<rect id="SVGID_3_" x="-131.6" y="-34.3" width="2802.4" height="1977.2"/>
			</defs>
			<clipPath id="SVGID_4_">
				<use xlink:href="#SVGID_3_"  style="overflow:visible;"/>
			</clipPath>
			<rect x="49.4" y="20.2" class="st1" width="33.1" height="48.7"/>
		</g>
	</g>
	<g>
		<defs>
			<polygon id="SVGID_5_" points="88.4,59.2 78.6,59.2 78.6,30 84.8,30 84.8,54.4 88.4,54.4 			"/>
		</defs>
		<clipPath id="SVGID_6_">
			<use xlink:href="#SVGID_5_"  style="overflow:visible;"/>
		</clipPath>
		<g class="st2">
			<defs>
				<rect id="SVGID_7_" x="-131.6" y="-34.3" width="2802.4" height="1977.2"/>
			</defs>
			<clipPath id="SVGID_8_">
				<use xlink:href="#SVGID_7_"  style="overflow:visible;"/>
			</clipPath>
			<rect x="68.9" y="20.2" class="st3" width="29.2" height="48.7"/>
		</g>
	</g>
	<g>
		<defs>
			<polygon id="SVGID_9_" points="102,59.2 92.2,59.2 92.2,30 102,30 102,34.7 98.4,34.7 98.4,40.8 102,40.8 102,45.5 98.4,45.5 
				98.4,54.4 102,54.4 			"/>
		</defs>
		<clipPath id="SVGID_10_">
			<use xlink:href="#SVGID_9_"  style="overflow:visible;"/>
		</clipPath>
		<g class="st4">
			<defs>
				<rect id="SVGID_11_" x="-131.6" y="-34.3" width="2802.4" height="1977.2"/>
			</defs>
			<clipPath id="SVGID_12_">
				<use xlink:href="#SVGID_11_"  style="overflow:visible;"/>
			</clipPath>
			<rect x="82.5" y="20.2" class="st5" width="29.2" height="48.7"/>
		</g>
	</g>
	<g>
		<defs>
			<path id="SVGID_13_" d="M66.9,103.7h-2.6l-1.1-1.9c-0.5,0.7-1.1,1.2-1.8,1.6c-0.7,0.4-1.8,0.5-3,0.5c-2.1,0-3.5-0.4-4.2-1.3
				c-0.6-0.8-0.9-2.2-0.9-4.3V80.3c0-2.3,0.4-3.8,1.2-4.5c0.8-0.7,2.7-1,5.6-1c2.9,0,4.8,0.4,5.7,1.1c0.8,0.6,1.1,2.1,1.1,4.5v4.4
				H61v-4.4c0-0.6-0.3-0.9-0.9-0.9s-0.9,0.3-0.9,0.9v17.9c0,0.6,0.3,0.9,0.9,0.9s0.9-0.3,0.9-0.9v-4.7h-1.1v-4.7h7V103.7z"/>
		</defs>
		<clipPath id="SVGID_14_">
			<use xlink:href="#SVGID_13_"  style="overflow:visible;"/>
		</clipPath>
		<g class="st6">
			<defs>
				<rect id="SVGID_15_" x="-131.6" y="-34.3" width="2802.4" height="1977.2"/>
			</defs>
			<clipPath id="SVGID_16_">
				<use xlink:href="#SVGID_15_"  style="overflow:visible;"/>
			</clipPath>
			<rect x="43.6" y="65" class="st7" width="33.1" height="48.7"/>
		</g>
	</g>
	<g>
		<defs>
			<polygon id="SVGID_17_" points="84.5,103.9 78.5,103.9 78.5,90.3 76.8,90.3 76.8,103.9 70.8,103.9 70.8,74.7 76.8,74.7 
				76.8,85.5 78.5,85.5 78.5,74.7 84.5,74.7 			"/>
		</defs>
		<clipPath id="SVGID_18_">
			<use xlink:href="#SVGID_17_"  style="overflow:visible;"/>
		</clipPath>
		<g class="st8">
			<defs>
				<rect id="SVGID_19_" x="-131.6" y="-34.3" width="2802.4" height="1977.2"/>
			</defs>
			<clipPath id="SVGID_20_">
				<use xlink:href="#SVGID_19_"  style="overflow:visible;"/>
			</clipPath>
			<rect x="61.1" y="65" class="st9" width="33.1" height="48.7"/>
		</g>
	</g>
	<g>
		<defs>
			<polygon id="SVGID_21_" points="102,79.5 98.3,79.5 98.3,103.9 92,103.9 92,79.5 88.4,79.5 88.4,74.7 102,74.7 			"/>
		</defs>
		<clipPath id="SVGID_22_">
			<use xlink:href="#SVGID_21_"  style="overflow:visible;"/>
		</clipPath>
		<g class="st10">
			<defs>
				<rect id="SVGID_23_" x="-131.6" y="-34.3" width="2802.4" height="1977.2"/>
			</defs>
			<clipPath id="SVGID_24_">
				<use xlink:href="#SVGID_23_"  style="overflow:visible;"/>
			</clipPath>
			<rect x="78.6" y="65" class="st11" width="33.1" height="48.7"/>
		</g>
	</g>
	<g>
		<defs>
			<rect id="SVGID_25_" x="30" y="65" width="74" height="3.9"/>
		</defs>
		<clipPath id="SVGID_26_">
			<use xlink:href="#SVGID_25_"  style="overflow:visible;"/>
		</clipPath>
		<g class="st12">
			<defs>
				<rect id="SVGID_27_" x="-131.6" y="-34.3" width="2802.4" height="1977.2"/>
			</defs>
			<clipPath id="SVGID_28_">
				<use xlink:href="#SVGID_27_"  style="overflow:visible;"/>
			</clipPath>
			<rect x="20.2" y="55.3" class="st13" width="93.4" height="23.4"/>
		</g>
	</g>
	<g>
		<defs>
			<path id="SVGID_29_" d="M125.3,4.7H4.7v120.7h120.7V4.7z M122,8v114H8V8H122"/>
		</defs>
		<clipPath id="SVGID_30_">
			<use xlink:href="#SVGID_29_"  style="overflow:visible;"/>
		</clipPath>
		<g class="st14">
			<defs>
				<rect id="SVGID_31_" x="-131.6" y="-36.2" width="2802.4" height="1977.2"/>
			</defs>
			<clipPath id="SVGID_32_">
				<use xlink:href="#SVGID_31_"  style="overflow:visible;"/>
			</clipPath>
			<rect x="-5.1" y="-5.1" class="st15" width="140.1" height="140.1"/>
		</g>
	</g>
	<g>
		<defs>
			<path id="SVGID_33_" d="M38.7,48.7l-1-11.3l-1,11.3H38.7z M45.5,59.2h-6l-0.5-5.8h-2.6L36,59.2h-6L33.9,30h7.8L45.5,59.2z"/>
		</defs>
		<clipPath id="SVGID_34_">
			<use xlink:href="#SVGID_33_"  style="overflow:visible;"/>
		</clipPath>
		<g class="st16">
			<defs>
				<rect id="SVGID_35_" x="-131.6" y="-34.3" width="2802.4" height="1977.2"/>
			</defs>
			<clipPath id="SVGID_36_">
				<use xlink:href="#SVGID_35_"  style="overflow:visible;"/>
			</clipPath>
			<rect x="20.2" y="20.2" class="st17" width="35" height="48.7"/>
		</g>
	</g>
	<g>
		<defs>
			<rect id="SVGID_37_" x="47.5" y="30" width="5.8" height="29.2"/>
		</defs>
		<clipPath id="SVGID_38_">
			<use xlink:href="#SVGID_37_"  style="overflow:visible;"/>
		</clipPath>
		<g class="st18">
			<defs>
				<rect id="SVGID_39_" x="-131.6" y="-34.3" width="2802.4" height="1977.2"/>
			</defs>
			<clipPath id="SVGID_40_">
				<use xlink:href="#SVGID_39_"  style="overflow:visible;"/>
			</clipPath>
			<rect x="37.8" y="20.2" class="st19" width="25.3" height="48.7"/>
		</g>
	</g>
	<g>
		<defs>
			<polygon id="SVGID_41_" points="39.7,103.9 30,103.9 30,74.7 39.7,74.7 39.7,79.5 36.1,79.5 36.1,85.5 39.7,85.5 39.7,90.3 
				36.1,90.3 36.1,99.2 39.7,99.2 			"/>
		</defs>
		<clipPath id="SVGID_42_">
			<use xlink:href="#SVGID_41_"  style="overflow:visible;"/>
		</clipPath>
		<g class="st20">
			<defs>
				<rect id="SVGID_43_" x="-131.6" y="-34.3" width="2802.4" height="1977.2"/>
			</defs>
			<clipPath id="SVGID_44_">
				<use xlink:href="#SVGID_43_"  style="overflow:visible;"/>
			</clipPath>
			<rect x="20.2" y="65" class="st21" width="29.2" height="48.7"/>
		</g>
	</g>
	<g>
		<defs>
			<rect id="SVGID_45_" x="43.6" y="74.7" width="5.8" height="29.2"/>
		</defs>
		<clipPath id="SVGID_46_">
			<use xlink:href="#SVGID_45_"  style="overflow:visible;"/>
		</clipPath>
		<g class="st22">
			<defs>
				<rect id="SVGID_47_" x="-131.6" y="-34.3" width="2802.4" height="1977.2"/>
			</defs>
			<clipPath id="SVGID_48_">
				<use xlink:href="#SVGID_47_"  style="overflow:visible;"/>
			</clipPath>
			<rect x="33.9" y="65" class="st23" width="25.3" height="48.7"/>
		</g>
	</g>
</g>
</svg>
