<svg width="10" height="9" viewBox="0 0 10 9" fill="none" xmlns="http://www.w3.org/2000/svg">
<path d="M9.3999 7.79999L7 5.59998C7.4 4.99998 7.6001 4.39998 7.6001 3.59998C7.6001 1.69998 6.0001 0.0999756 4.1001 0.0999756C2.2001 0.0999756 0.600098 1.69998 0.600098 3.59998C0.600098 5.49998 2.2001 7.09998 4.1001 7.09998C4.9001 7.09998 5.70005 6.79999 6.30005 6.29999L8.80005 8.5C8.90005 8.6 9.0001 8.59998 9.1001 8.59998C9.2001 8.59998 9.4 8.50002 9.5 8.40002C9.6 8.30002 9.5999 7.99999 9.3999 7.79999ZM1.6001 3.70001C1.6001 2.30001 2.7001 1.20001 4.1001 1.20001C5.5001 1.20001 6.6001 2.30001 6.6001 3.70001C6.6001 5.10001 5.5001 6.20001 4.1001 6.20001C2.7001 6.20001 1.6001 5.10001 1.6001 3.70001Z" fill="#444444"/>
</svg>
